<svg width="68" height="41" viewBox="0 0 68 41" fill="none" xmlns="http://www.w3.org/2000/svg">
<path d="M1.6123 35.2992V5.19786C1.6123 2.87881 4.11495 1.42268 6.13105 2.56867L32.8566 17.76C34.9057 18.9248 34.8938 21.8819 32.8355 23.0303L6.10999 37.9403C4.09414 39.0649 1.6123 37.6076 1.6123 35.2992Z" fill="#F7F7F0" stroke="#252222" stroke-width="1.51213"/>
<path d="M16.5254 35.2992V5.19786C16.5254 2.87881 19.028 1.42268 21.0441 2.56867L47.7697 17.76C49.8187 18.9248 49.8069 21.8819 47.7486 23.0303L21.0231 37.9403C19.0072 39.0649 16.5254 37.6076 16.5254 35.2992Z" fill="#F7F7F0" stroke="#252222" stroke-width="1.51213"/>
<path d="M31.4385 35.2992V5.19786C31.4385 2.87881 33.9411 1.42268 35.9572 2.56867L62.6828 17.76C64.7318 18.9248 64.72 21.8819 62.6617 23.0303L35.9362 37.9403C33.9203 39.0649 31.4385 37.6076 31.4385 35.2992Z" fill="#F7F7F0" stroke="#252222" stroke-width="1.51213"/>
</svg>
